<mxfile host="app.diagrams.net" agent="Mozilla/5.0 (X11; Ubuntu; Linux x86_64; rv:139.0) Gecko/20100101 Firefox/139.0" version="27.1.1">
  <diagram name="Page-1" id="sTp0rz4QhYJ_YVSK4Zm7">
    <mxGraphModel dx="883" dy="529" grid="1" gridSize="10" guides="1" tooltips="1" connect="1" arrows="1" fold="1" page="1" pageScale="1" pageWidth="850" pageHeight="1100" math="0" shadow="0">
      <root>
        <mxCell id="0" />
        <mxCell id="1" parent="0" />
        <mxCell id="vA1Tktgb3wKLIOm15Qo8-1" value="" style="shape=table;startSize=0;container=1;collapsible=0;childLayout=tableLayout;fontStyle=0" vertex="1" parent="1">
          <mxGeometry x="490" y="220" width="700" height="450" as="geometry" />
        </mxCell>
        <mxCell id="vA1Tktgb3wKLIOm15Qo8-2" value="" style="shape=tableRow;horizontal=0;startSize=0;swimlaneHead=0;swimlaneBody=0;strokeColor=inherit;top=0;left=0;bottom=0;right=0;collapsible=0;dropTarget=0;fillColor=none;points=[[0,0.5],[1,0.5]];portConstraint=eastwest;" vertex="1" parent="vA1Tktgb3wKLIOm15Qo8-1">
          <mxGeometry width="700" height="40" as="geometry" />
        </mxCell>
        <mxCell id="vA1Tktgb3wKLIOm15Qo8-3" value="Use Case ID" style="shape=partialRectangle;html=1;whiteSpace=wrap;connectable=0;strokeColor=inherit;overflow=hidden;fillColor=none;top=0;left=0;bottom=0;right=0;pointerEvents=1;fontStyle=1" vertex="1" parent="vA1Tktgb3wKLIOm15Qo8-2">
          <mxGeometry width="120" height="40" as="geometry">
            <mxRectangle width="120" height="40" as="alternateBounds" />
          </mxGeometry>
        </mxCell>
        <mxCell id="vA1Tktgb3wKLIOm15Qo8-4" value="11" style="shape=partialRectangle;html=1;whiteSpace=wrap;connectable=0;strokeColor=inherit;overflow=hidden;fillColor=none;top=0;left=0;bottom=0;right=0;pointerEvents=1;" vertex="1" parent="vA1Tktgb3wKLIOm15Qo8-2">
          <mxGeometry x="120" width="54" height="40" as="geometry">
            <mxRectangle width="54" height="40" as="alternateBounds" />
          </mxGeometry>
        </mxCell>
        <mxCell id="vA1Tktgb3wKLIOm15Qo8-5" value="Use Case name" style="shape=partialRectangle;html=1;whiteSpace=wrap;connectable=0;strokeColor=inherit;overflow=hidden;fillColor=none;top=0;left=0;bottom=0;right=0;pointerEvents=1;fontStyle=1" vertex="1" parent="vA1Tktgb3wKLIOm15Qo8-2">
          <mxGeometry x="174" width="110" height="40" as="geometry">
            <mxRectangle width="110" height="40" as="alternateBounds" />
          </mxGeometry>
        </mxCell>
        <mxCell id="vA1Tktgb3wKLIOm15Qo8-6" value="Pay on Delivery" style="shape=partialRectangle;html=1;whiteSpace=wrap;connectable=0;strokeColor=inherit;overflow=hidden;fillColor=none;top=0;left=0;bottom=0;right=0;pointerEvents=1;" vertex="1" parent="vA1Tktgb3wKLIOm15Qo8-2">
          <mxGeometry x="284" width="416" height="40" as="geometry">
            <mxRectangle width="416" height="40" as="alternateBounds" />
          </mxGeometry>
        </mxCell>
        <mxCell id="vA1Tktgb3wKLIOm15Qo8-7" style="shape=tableRow;horizontal=0;startSize=0;swimlaneHead=0;swimlaneBody=0;strokeColor=inherit;top=0;left=0;bottom=0;right=0;collapsible=0;dropTarget=0;fillColor=none;points=[[0,0.5],[1,0.5]];portConstraint=eastwest;" vertex="1" parent="vA1Tktgb3wKLIOm15Qo8-1">
          <mxGeometry y="40" width="700" height="50" as="geometry" />
        </mxCell>
        <mxCell id="vA1Tktgb3wKLIOm15Qo8-8" value="Description" style="shape=partialRectangle;html=1;whiteSpace=wrap;connectable=0;strokeColor=inherit;overflow=hidden;fillColor=none;top=0;left=0;bottom=0;right=0;pointerEvents=1;fontStyle=1" vertex="1" parent="vA1Tktgb3wKLIOm15Qo8-7">
          <mxGeometry width="120" height="50" as="geometry">
            <mxRectangle width="120" height="50" as="alternateBounds" />
          </mxGeometry>
        </mxCell>
        <mxCell id="vA1Tktgb3wKLIOm15Qo8-9" value="Record the customerâ€™s choice to pay in cash when the package is delivered; no online transaction occurs, and the system awaits confirmation of cash collection." style="shape=partialRectangle;html=1;whiteSpace=wrap;connectable=0;strokeColor=inherit;overflow=hidden;fillColor=none;top=0;left=0;bottom=0;right=0;pointerEvents=1;rowspan=1;colspan=3;" vertex="1" parent="vA1Tktgb3wKLIOm15Qo8-7">
          <mxGeometry x="120" width="580" height="50" as="geometry">
            <mxRectangle width="54" height="50" as="alternateBounds" />
          </mxGeometry>
        </mxCell>
        <mxCell id="vA1Tktgb3wKLIOm15Qo8-10" style="shape=partialRectangle;html=1;whiteSpace=wrap;connectable=0;strokeColor=inherit;overflow=hidden;fillColor=none;top=0;left=0;bottom=0;right=0;pointerEvents=1;fontStyle=1" vertex="1" visible="0" parent="vA1Tktgb3wKLIOm15Qo8-7">
          <mxGeometry x="174" width="110" height="50" as="geometry">
            <mxRectangle width="110" height="50" as="alternateBounds" />
          </mxGeometry>
        </mxCell>
        <mxCell id="vA1Tktgb3wKLIOm15Qo8-11" style="shape=partialRectangle;html=1;whiteSpace=wrap;connectable=0;strokeColor=inherit;overflow=hidden;fillColor=none;top=0;left=0;bottom=0;right=0;pointerEvents=1;" vertex="1" visible="0" parent="vA1Tktgb3wKLIOm15Qo8-7">
          <mxGeometry x="284" width="416" height="50" as="geometry">
            <mxRectangle width="416" height="50" as="alternateBounds" />
          </mxGeometry>
        </mxCell>
        <mxCell id="vA1Tktgb3wKLIOm15Qo8-12" value="" style="shape=tableRow;horizontal=0;startSize=0;swimlaneHead=0;swimlaneBody=0;strokeColor=inherit;top=0;left=0;bottom=0;right=0;collapsible=0;dropTarget=0;fillColor=none;points=[[0,0.5],[1,0.5]];portConstraint=eastwest;" vertex="1" parent="vA1Tktgb3wKLIOm15Qo8-1">
          <mxGeometry y="90" width="700" height="40" as="geometry" />
        </mxCell>
        <mxCell id="vA1Tktgb3wKLIOm15Qo8-13" value="Actor" style="shape=partialRectangle;html=1;whiteSpace=wrap;connectable=0;strokeColor=inherit;overflow=hidden;fillColor=none;top=0;left=0;bottom=0;right=0;pointerEvents=1;fontStyle=1" vertex="1" parent="vA1Tktgb3wKLIOm15Qo8-12">
          <mxGeometry width="120" height="40" as="geometry">
            <mxRectangle width="120" height="40" as="alternateBounds" />
          </mxGeometry>
        </mxCell>
        <mxCell id="vA1Tktgb3wKLIOm15Qo8-14" value="Customer" style="shape=partialRectangle;html=1;whiteSpace=wrap;connectable=0;strokeColor=inherit;overflow=hidden;fillColor=none;top=0;left=0;bottom=0;right=0;pointerEvents=1;rowspan=1;colspan=3;" vertex="1" parent="vA1Tktgb3wKLIOm15Qo8-12">
          <mxGeometry x="120" width="580" height="40" as="geometry">
            <mxRectangle width="54" height="40" as="alternateBounds" />
          </mxGeometry>
        </mxCell>
        <mxCell id="vA1Tktgb3wKLIOm15Qo8-15" value="" style="shape=partialRectangle;html=1;whiteSpace=wrap;connectable=0;strokeColor=inherit;overflow=hidden;fillColor=none;top=0;left=0;bottom=0;right=0;pointerEvents=1;" vertex="1" visible="0" parent="vA1Tktgb3wKLIOm15Qo8-12">
          <mxGeometry x="174" width="110" height="40" as="geometry">
            <mxRectangle width="110" height="40" as="alternateBounds" />
          </mxGeometry>
        </mxCell>
        <mxCell id="vA1Tktgb3wKLIOm15Qo8-16" value="" style="shape=partialRectangle;html=1;whiteSpace=wrap;connectable=0;strokeColor=inherit;overflow=hidden;fillColor=none;top=0;left=0;bottom=0;right=0;pointerEvents=1;" vertex="1" visible="0" parent="vA1Tktgb3wKLIOm15Qo8-12">
          <mxGeometry x="284" width="416" height="40" as="geometry">
            <mxRectangle width="416" height="40" as="alternateBounds" />
          </mxGeometry>
        </mxCell>
        <mxCell id="vA1Tktgb3wKLIOm15Qo8-17" style="shape=tableRow;horizontal=0;startSize=0;swimlaneHead=0;swimlaneBody=0;strokeColor=inherit;top=0;left=0;bottom=0;right=0;collapsible=0;dropTarget=0;fillColor=none;points=[[0,0.5],[1,0.5]];portConstraint=eastwest;" vertex="1" parent="vA1Tktgb3wKLIOm15Qo8-1">
          <mxGeometry y="130" width="700" height="40" as="geometry" />
        </mxCell>
        <mxCell id="vA1Tktgb3wKLIOm15Qo8-18" value="Trigger" style="shape=partialRectangle;html=1;whiteSpace=wrap;connectable=0;strokeColor=inherit;overflow=hidden;fillColor=none;top=0;left=0;bottom=0;right=0;pointerEvents=1;fontStyle=1" vertex="1" parent="vA1Tktgb3wKLIOm15Qo8-17">
          <mxGeometry width="120" height="40" as="geometry">
            <mxRectangle width="120" height="40" as="alternateBounds" />
          </mxGeometry>
        </mxCell>
        <mxCell id="vA1Tktgb3wKLIOm15Qo8-19" value="Customer selects &lt;strong data-end=&quot;1981&quot; data-start=&quot;1955&quot;&gt;Cash on Delivery (COD)&lt;/strong&gt; and confirms." style="shape=partialRectangle;html=1;whiteSpace=wrap;connectable=0;strokeColor=inherit;overflow=hidden;fillColor=none;top=0;left=0;bottom=0;right=0;pointerEvents=1;rowspan=1;colspan=3;" vertex="1" parent="vA1Tktgb3wKLIOm15Qo8-17">
          <mxGeometry x="120" width="580" height="40" as="geometry">
            <mxRectangle width="54" height="40" as="alternateBounds" />
          </mxGeometry>
        </mxCell>
        <mxCell id="vA1Tktgb3wKLIOm15Qo8-20" style="shape=partialRectangle;html=1;whiteSpace=wrap;connectable=0;strokeColor=inherit;overflow=hidden;fillColor=none;top=0;left=0;bottom=0;right=0;pointerEvents=1;" vertex="1" visible="0" parent="vA1Tktgb3wKLIOm15Qo8-17">
          <mxGeometry x="174" width="110" height="40" as="geometry">
            <mxRectangle width="110" height="40" as="alternateBounds" />
          </mxGeometry>
        </mxCell>
        <mxCell id="vA1Tktgb3wKLIOm15Qo8-21" style="shape=partialRectangle;html=1;whiteSpace=wrap;connectable=0;strokeColor=inherit;overflow=hidden;fillColor=none;top=0;left=0;bottom=0;right=0;pointerEvents=1;" vertex="1" visible="0" parent="vA1Tktgb3wKLIOm15Qo8-17">
          <mxGeometry x="284" width="416" height="40" as="geometry">
            <mxRectangle width="416" height="40" as="alternateBounds" />
          </mxGeometry>
        </mxCell>
        <mxCell id="vA1Tktgb3wKLIOm15Qo8-22" value="" style="shape=tableRow;horizontal=0;startSize=0;swimlaneHead=0;swimlaneBody=0;strokeColor=inherit;top=0;left=0;bottom=0;right=0;collapsible=0;dropTarget=0;fillColor=none;points=[[0,0.5],[1,0.5]];portConstraint=eastwest;" vertex="1" parent="vA1Tktgb3wKLIOm15Qo8-1">
          <mxGeometry y="170" width="700" height="40" as="geometry" />
        </mxCell>
        <mxCell id="vA1Tktgb3wKLIOm15Qo8-23" value="&lt;b&gt;Pre-Condition&lt;/b&gt;" style="shape=partialRectangle;html=1;whiteSpace=wrap;connectable=0;strokeColor=inherit;overflow=hidden;fillColor=none;top=0;left=0;bottom=0;right=0;pointerEvents=1;" vertex="1" parent="vA1Tktgb3wKLIOm15Qo8-22">
          <mxGeometry width="120" height="40" as="geometry">
            <mxRectangle width="120" height="40" as="alternateBounds" />
          </mxGeometry>
        </mxCell>
        <mxCell id="vA1Tktgb3wKLIOm15Qo8-24" value="&lt;div align=&quot;left&quot;&gt;&lt;ul&gt;&lt;li&gt;Customer checked the order&#39;s information&lt;/li&gt;&lt;/ul&gt;&lt;/div&gt;" style="shape=partialRectangle;html=1;whiteSpace=wrap;connectable=0;strokeColor=inherit;overflow=hidden;fillColor=none;top=0;left=0;bottom=0;right=0;pointerEvents=1;rowspan=1;colspan=3;align=left;" vertex="1" parent="vA1Tktgb3wKLIOm15Qo8-22">
          <mxGeometry x="120" width="580" height="40" as="geometry">
            <mxRectangle width="54" height="40" as="alternateBounds" />
          </mxGeometry>
        </mxCell>
        <mxCell id="vA1Tktgb3wKLIOm15Qo8-25" value="" style="shape=partialRectangle;html=1;whiteSpace=wrap;connectable=0;strokeColor=inherit;overflow=hidden;fillColor=none;top=0;left=0;bottom=0;right=0;pointerEvents=1;" vertex="1" visible="0" parent="vA1Tktgb3wKLIOm15Qo8-22">
          <mxGeometry x="174" width="110" height="40" as="geometry">
            <mxRectangle width="110" height="40" as="alternateBounds" />
          </mxGeometry>
        </mxCell>
        <mxCell id="vA1Tktgb3wKLIOm15Qo8-26" value="" style="shape=partialRectangle;html=1;whiteSpace=wrap;connectable=0;strokeColor=inherit;overflow=hidden;fillColor=none;top=0;left=0;bottom=0;right=0;pointerEvents=1;" vertex="1" visible="0" parent="vA1Tktgb3wKLIOm15Qo8-22">
          <mxGeometry x="284" width="416" height="40" as="geometry">
            <mxRectangle width="416" height="40" as="alternateBounds" />
          </mxGeometry>
        </mxCell>
        <mxCell id="vA1Tktgb3wKLIOm15Qo8-27" style="shape=tableRow;horizontal=0;startSize=0;swimlaneHead=0;swimlaneBody=0;strokeColor=inherit;top=0;left=0;bottom=0;right=0;collapsible=0;dropTarget=0;fillColor=none;points=[[0,0.5],[1,0.5]];portConstraint=eastwest;" vertex="1" parent="vA1Tktgb3wKLIOm15Qo8-1">
          <mxGeometry y="210" width="700" height="40" as="geometry" />
        </mxCell>
        <mxCell id="vA1Tktgb3wKLIOm15Qo8-28" value="&lt;b&gt;Post-Condition&lt;/b&gt;" style="shape=partialRectangle;html=1;whiteSpace=wrap;connectable=0;strokeColor=inherit;overflow=hidden;fillColor=none;top=0;left=0;bottom=0;right=0;pointerEvents=1;" vertex="1" parent="vA1Tktgb3wKLIOm15Qo8-27">
          <mxGeometry width="120" height="40" as="geometry">
            <mxRectangle width="120" height="40" as="alternateBounds" />
          </mxGeometry>
        </mxCell>
        <mxCell id="vA1Tktgb3wKLIOm15Qo8-29" value="&lt;div align=&quot;left&quot;&gt;&lt;ul&gt;&lt;li&gt;Payment is confirmed and completed&lt;/li&gt;&lt;/ul&gt;&lt;/div&gt;" style="shape=partialRectangle;html=1;whiteSpace=wrap;connectable=0;strokeColor=inherit;overflow=hidden;fillColor=none;top=0;left=0;bottom=0;right=0;pointerEvents=1;rowspan=1;colspan=3;align=left;" vertex="1" parent="vA1Tktgb3wKLIOm15Qo8-27">
          <mxGeometry x="120" width="580" height="40" as="geometry">
            <mxRectangle width="54" height="40" as="alternateBounds" />
          </mxGeometry>
        </mxCell>
        <mxCell id="vA1Tktgb3wKLIOm15Qo8-30" style="shape=partialRectangle;html=1;whiteSpace=wrap;connectable=0;strokeColor=inherit;overflow=hidden;fillColor=none;top=0;left=0;bottom=0;right=0;pointerEvents=1;" vertex="1" visible="0" parent="vA1Tktgb3wKLIOm15Qo8-27">
          <mxGeometry x="174" width="110" height="40" as="geometry">
            <mxRectangle width="110" height="40" as="alternateBounds" />
          </mxGeometry>
        </mxCell>
        <mxCell id="vA1Tktgb3wKLIOm15Qo8-31" style="shape=partialRectangle;html=1;whiteSpace=wrap;connectable=0;strokeColor=inherit;overflow=hidden;fillColor=none;top=0;left=0;bottom=0;right=0;pointerEvents=1;" vertex="1" visible="0" parent="vA1Tktgb3wKLIOm15Qo8-27">
          <mxGeometry x="284" width="416" height="40" as="geometry">
            <mxRectangle width="416" height="40" as="alternateBounds" />
          </mxGeometry>
        </mxCell>
        <mxCell id="vA1Tktgb3wKLIOm15Qo8-32" value="" style="shape=tableRow;horizontal=0;startSize=0;swimlaneHead=0;swimlaneBody=0;strokeColor=inherit;top=0;left=0;bottom=0;right=0;collapsible=0;dropTarget=0;fillColor=none;points=[[0,0.5],[1,0.5]];portConstraint=eastwest;" vertex="1" parent="vA1Tktgb3wKLIOm15Qo8-1">
          <mxGeometry y="250" width="700" height="40" as="geometry" />
        </mxCell>
        <mxCell id="vA1Tktgb3wKLIOm15Qo8-33" value="&lt;b&gt;Basic Flow&lt;/b&gt;" style="shape=partialRectangle;html=1;whiteSpace=wrap;connectable=0;strokeColor=inherit;overflow=hidden;fillColor=none;top=0;left=0;bottom=0;right=0;pointerEvents=1;rowspan=4;colspan=1;" vertex="1" parent="vA1Tktgb3wKLIOm15Qo8-32">
          <mxGeometry width="120" height="160" as="geometry">
            <mxRectangle width="120" height="40" as="alternateBounds" />
          </mxGeometry>
        </mxCell>
        <mxCell id="vA1Tktgb3wKLIOm15Qo8-34" value="Step" style="shape=partialRectangle;html=1;whiteSpace=wrap;connectable=0;strokeColor=inherit;overflow=hidden;fillColor=none;top=0;left=0;bottom=0;right=0;pointerEvents=1;" vertex="1" parent="vA1Tktgb3wKLIOm15Qo8-32">
          <mxGeometry x="120" width="54" height="40" as="geometry">
            <mxRectangle width="54" height="40" as="alternateBounds" />
          </mxGeometry>
        </mxCell>
        <mxCell id="vA1Tktgb3wKLIOm15Qo8-35" value="Performed by" style="shape=partialRectangle;html=1;whiteSpace=wrap;connectable=0;strokeColor=inherit;overflow=hidden;fillColor=none;top=0;left=0;bottom=0;right=0;pointerEvents=1;" vertex="1" parent="vA1Tktgb3wKLIOm15Qo8-32">
          <mxGeometry x="174" width="110" height="40" as="geometry">
            <mxRectangle width="110" height="40" as="alternateBounds" />
          </mxGeometry>
        </mxCell>
        <mxCell id="vA1Tktgb3wKLIOm15Qo8-36" value="Action" style="shape=partialRectangle;html=1;whiteSpace=wrap;connectable=0;strokeColor=inherit;overflow=hidden;fillColor=none;top=0;left=0;bottom=0;right=0;pointerEvents=1;" vertex="1" parent="vA1Tktgb3wKLIOm15Qo8-32">
          <mxGeometry x="284" width="416" height="40" as="geometry">
            <mxRectangle width="416" height="40" as="alternateBounds" />
          </mxGeometry>
        </mxCell>
        <mxCell id="vA1Tktgb3wKLIOm15Qo8-37" value="" style="shape=tableRow;horizontal=0;startSize=0;swimlaneHead=0;swimlaneBody=0;strokeColor=inherit;top=0;left=0;bottom=0;right=0;collapsible=0;dropTarget=0;fillColor=none;points=[[0,0.5],[1,0.5]];portConstraint=eastwest;" vertex="1" parent="vA1Tktgb3wKLIOm15Qo8-1">
          <mxGeometry y="290" width="700" height="40" as="geometry" />
        </mxCell>
        <mxCell id="vA1Tktgb3wKLIOm15Qo8-38" value="" style="shape=partialRectangle;html=1;whiteSpace=wrap;connectable=0;strokeColor=inherit;overflow=hidden;fillColor=none;top=0;left=0;bottom=0;right=0;pointerEvents=1;" vertex="1" visible="0" parent="vA1Tktgb3wKLIOm15Qo8-37">
          <mxGeometry width="120" height="40" as="geometry">
            <mxRectangle width="120" height="40" as="alternateBounds" />
          </mxGeometry>
        </mxCell>
        <mxCell id="vA1Tktgb3wKLIOm15Qo8-39" value="1" style="shape=partialRectangle;html=1;whiteSpace=wrap;connectable=0;strokeColor=inherit;overflow=hidden;fillColor=none;top=0;left=0;bottom=0;right=0;pointerEvents=1;" vertex="1" parent="vA1Tktgb3wKLIOm15Qo8-37">
          <mxGeometry x="120" width="54" height="40" as="geometry">
            <mxRectangle width="54" height="40" as="alternateBounds" />
          </mxGeometry>
        </mxCell>
        <mxCell id="vA1Tktgb3wKLIOm15Qo8-40" value="System" style="shape=partialRectangle;html=1;whiteSpace=wrap;connectable=0;strokeColor=inherit;overflow=hidden;fillColor=none;top=0;left=0;bottom=0;right=0;pointerEvents=1;" vertex="1" parent="vA1Tktgb3wKLIOm15Qo8-37">
          <mxGeometry x="174" width="110" height="40" as="geometry">
            <mxRectangle width="110" height="40" as="alternateBounds" />
          </mxGeometry>
        </mxCell>
        <mxCell id="vA1Tktgb3wKLIOm15Qo8-41" value="Shows payment options" style="shape=partialRectangle;html=1;whiteSpace=wrap;connectable=0;strokeColor=inherit;overflow=hidden;fillColor=none;top=0;left=0;bottom=0;right=0;pointerEvents=1;fontStyle=0" vertex="1" parent="vA1Tktgb3wKLIOm15Qo8-37">
          <mxGeometry x="284" width="416" height="40" as="geometry">
            <mxRectangle width="416" height="40" as="alternateBounds" />
          </mxGeometry>
        </mxCell>
        <mxCell id="vA1Tktgb3wKLIOm15Qo8-42" value="" style="shape=tableRow;horizontal=0;startSize=0;swimlaneHead=0;swimlaneBody=0;strokeColor=inherit;top=0;left=0;bottom=0;right=0;collapsible=0;dropTarget=0;fillColor=none;points=[[0,0.5],[1,0.5]];portConstraint=eastwest;" vertex="1" parent="vA1Tktgb3wKLIOm15Qo8-1">
          <mxGeometry y="330" width="700" height="40" as="geometry" />
        </mxCell>
        <mxCell id="vA1Tktgb3wKLIOm15Qo8-43" value="" style="shape=partialRectangle;html=1;whiteSpace=wrap;connectable=0;strokeColor=inherit;overflow=hidden;fillColor=none;top=0;left=0;bottom=0;right=0;pointerEvents=1;" vertex="1" visible="0" parent="vA1Tktgb3wKLIOm15Qo8-42">
          <mxGeometry width="120" height="40" as="geometry">
            <mxRectangle width="120" height="40" as="alternateBounds" />
          </mxGeometry>
        </mxCell>
        <mxCell id="vA1Tktgb3wKLIOm15Qo8-44" value="2" style="shape=partialRectangle;html=1;whiteSpace=wrap;connectable=0;strokeColor=inherit;overflow=hidden;fillColor=none;top=0;left=0;bottom=0;right=0;pointerEvents=1;" vertex="1" parent="vA1Tktgb3wKLIOm15Qo8-42">
          <mxGeometry x="120" width="54" height="40" as="geometry">
            <mxRectangle width="54" height="40" as="alternateBounds" />
          </mxGeometry>
        </mxCell>
        <mxCell id="vA1Tktgb3wKLIOm15Qo8-45" value="Customer" style="shape=partialRectangle;html=1;whiteSpace=wrap;connectable=0;strokeColor=inherit;overflow=hidden;fillColor=none;top=0;left=0;bottom=0;right=0;pointerEvents=1;" vertex="1" parent="vA1Tktgb3wKLIOm15Qo8-42">
          <mxGeometry x="174" width="110" height="40" as="geometry">
            <mxRectangle width="110" height="40" as="alternateBounds" />
          </mxGeometry>
        </mxCell>
        <mxCell id="vA1Tktgb3wKLIOm15Qo8-46" value="Chooses Pay on Delivery" style="shape=partialRectangle;html=1;whiteSpace=wrap;connectable=0;strokeColor=inherit;overflow=hidden;fillColor=none;top=0;left=0;bottom=0;right=0;pointerEvents=1;fontStyle=0" vertex="1" parent="vA1Tktgb3wKLIOm15Qo8-42">
          <mxGeometry x="284" width="416" height="40" as="geometry">
            <mxRectangle width="416" height="40" as="alternateBounds" />
          </mxGeometry>
        </mxCell>
        <mxCell id="vA1Tktgb3wKLIOm15Qo8-47" value="" style="shape=tableRow;horizontal=0;startSize=0;swimlaneHead=0;swimlaneBody=0;strokeColor=inherit;top=0;left=0;bottom=0;right=0;collapsible=0;dropTarget=0;fillColor=none;points=[[0,0.5],[1,0.5]];portConstraint=eastwest;" vertex="1" parent="vA1Tktgb3wKLIOm15Qo8-1">
          <mxGeometry y="370" width="700" height="40" as="geometry" />
        </mxCell>
        <mxCell id="vA1Tktgb3wKLIOm15Qo8-48" value="" style="shape=partialRectangle;html=1;whiteSpace=wrap;connectable=0;strokeColor=inherit;overflow=hidden;fillColor=none;top=0;left=0;bottom=0;right=0;pointerEvents=1;" vertex="1" visible="0" parent="vA1Tktgb3wKLIOm15Qo8-47">
          <mxGeometry width="120" height="40" as="geometry">
            <mxRectangle width="120" height="40" as="alternateBounds" />
          </mxGeometry>
        </mxCell>
        <mxCell id="vA1Tktgb3wKLIOm15Qo8-49" value="3" style="shape=partialRectangle;html=1;whiteSpace=wrap;connectable=0;strokeColor=inherit;overflow=hidden;fillColor=none;top=0;left=0;bottom=0;right=0;pointerEvents=1;" vertex="1" parent="vA1Tktgb3wKLIOm15Qo8-47">
          <mxGeometry x="120" width="54" height="40" as="geometry">
            <mxRectangle width="54" height="40" as="alternateBounds" />
          </mxGeometry>
        </mxCell>
        <mxCell id="vA1Tktgb3wKLIOm15Qo8-50" value="System" style="shape=partialRectangle;html=1;whiteSpace=wrap;connectable=0;strokeColor=inherit;overflow=hidden;fillColor=none;top=0;left=0;bottom=0;right=0;pointerEvents=1;" vertex="1" parent="vA1Tktgb3wKLIOm15Qo8-47">
          <mxGeometry x="174" width="110" height="40" as="geometry">
            <mxRectangle width="110" height="40" as="alternateBounds" />
          </mxGeometry>
        </mxCell>
        <mxCell id="vA1Tktgb3wKLIOm15Qo8-51" value="Records method" style="shape=partialRectangle;html=1;whiteSpace=wrap;connectable=0;strokeColor=inherit;overflow=hidden;fillColor=none;top=0;left=0;bottom=0;right=0;pointerEvents=1;" vertex="1" parent="vA1Tktgb3wKLIOm15Qo8-47">
          <mxGeometry x="284" width="416" height="40" as="geometry">
            <mxRectangle width="416" height="40" as="alternateBounds" />
          </mxGeometry>
        </mxCell>
        <mxCell id="vA1Tktgb3wKLIOm15Qo8-57" style="shape=tableRow;horizontal=0;startSize=0;swimlaneHead=0;swimlaneBody=0;strokeColor=inherit;top=0;left=0;bottom=0;right=0;collapsible=0;dropTarget=0;fillColor=none;points=[[0,0.5],[1,0.5]];portConstraint=eastwest;" vertex="1" parent="vA1Tktgb3wKLIOm15Qo8-1">
          <mxGeometry y="410" width="700" height="40" as="geometry" />
        </mxCell>
        <mxCell id="vA1Tktgb3wKLIOm15Qo8-58" value="&lt;b&gt;Exception Flow&lt;/b&gt;" style="shape=partialRectangle;html=1;whiteSpace=wrap;connectable=0;strokeColor=inherit;overflow=hidden;fillColor=none;top=0;left=0;bottom=0;right=0;pointerEvents=1;rowspan=3;colspan=1;" vertex="1" parent="vA1Tktgb3wKLIOm15Qo8-57">
          <mxGeometry width="120" height="40" as="geometry">
            <mxRectangle width="120" height="40" as="alternateBounds" />
          </mxGeometry>
        </mxCell>
        <mxCell id="vA1Tktgb3wKLIOm15Qo8-59" value="3a" style="shape=partialRectangle;html=1;whiteSpace=wrap;connectable=0;strokeColor=inherit;overflow=hidden;fillColor=none;top=0;left=0;bottom=0;right=0;pointerEvents=1;" vertex="1" parent="vA1Tktgb3wKLIOm15Qo8-57">
          <mxGeometry x="120" width="54" height="40" as="geometry">
            <mxRectangle width="54" height="40" as="alternateBounds" />
          </mxGeometry>
        </mxCell>
        <mxCell id="vA1Tktgb3wKLIOm15Qo8-60" value="System" style="shape=partialRectangle;html=1;whiteSpace=wrap;connectable=0;strokeColor=inherit;overflow=hidden;fillColor=none;top=0;left=0;bottom=0;right=0;pointerEvents=1;" vertex="1" parent="vA1Tktgb3wKLIOm15Qo8-57">
          <mxGeometry x="174" width="110" height="40" as="geometry">
            <mxRectangle width="110" height="40" as="alternateBounds" />
          </mxGeometry>
        </mxCell>
        <mxCell id="vA1Tktgb3wKLIOm15Qo8-61" value="If services failure, notify customer by &lt;b&gt;Payment Failed&lt;/b&gt; notification" style="shape=partialRectangle;html=1;whiteSpace=wrap;connectable=0;strokeColor=inherit;overflow=hidden;fillColor=none;top=0;left=0;bottom=0;right=0;pointerEvents=1;" vertex="1" parent="vA1Tktgb3wKLIOm15Qo8-57">
          <mxGeometry x="284" width="416" height="40" as="geometry">
            <mxRectangle width="416" height="40" as="alternateBounds" />
          </mxGeometry>
        </mxCell>
      </root>
    </mxGraphModel>
  </diagram>
</mxfile>
